<svg xmlns="http://www.w3.org/2000/svg" xmlns:xlink="http://www.w3.org/1999/xlink"><symbol fill="none" id="sprite-arrow" viewBox="0 0 25 15"><path fill="#1E1E1E" d="M24.707 8.071a1 1 0 0 0 0-1.414L18.343.293a1 1 0 1 0-1.414 1.414l5.657 5.657-5.657 5.657a1 1 0 0 0 1.414 1.414zM0 7.364v1h24v-2H0z"/></symbol><use xlink:href="#sprite-arrow" width="25" height="15" y="0"/><view id="sprite-arrow-view" viewBox="0 0 25 15"/><symbol fill="none" id="sprite-caretdown" viewBox="0 0 15 15"><path fill="#1E1E1E" d="M12.685 6.122 7.997 10.81a.704.704 0 0 1-.996 0L2.314 6.122a.704.704 0 1 1 .996-.996l4.19 4.19 4.19-4.19a.704.704 0 0 1 .996.996z"/></symbol><use xlink:href="#sprite-caretdown" width="15" height="15" y="15"/><view id="sprite-caretdown-view" viewBox="0 15 15 15"/><symbol fill="none" id="sprite-close" viewBox="0 0 21 21"><path stroke="currentColor" d="m20.354.354-20 20M.354.354l20 20"/></symbol><use xlink:href="#sprite-close" width="21" height="21" y="30"/><view id="sprite-close-view" viewBox="0 30 21 21"/><symbol fill="none" id="sprite-home" viewBox="0 0 18 18"><path stroke="currentColor" stroke-linecap="round" stroke-width="1.5" d="M6.083 16.75v-6.086c0-.56.478-1.015 1.067-1.015h3.2c.59 0 1.067.454 1.067 1.015v6.086M8.132.938 1.199 5.626a1 1 0 0 0-.449.827v8.775c0 .84.716 1.522 1.6 1.522h12.8c.884 0 1.6-.681 1.6-1.522V6.453a1 1 0 0 0-.448-.827L9.368.938c-.37-.25-.866-.25-1.236 0Z"/></symbol><use xlink:href="#sprite-home" width="18" height="18" y="51"/><view id="sprite-home-view" viewBox="0 51 18 18"/><symbol fill="none" id="sprite-search" viewBox="0 0 21 21"><path fill="#1E1E1E" d="m19.94 18.348-4.452-4.454a8.636 8.636 0 1 0-1.594 1.594l4.456 4.457a1.124 1.124 0 0 0 1.594 0 1.126 1.126 0 0 0 0-1.594zM2.269 8.644a6.375 6.375 0 1 1 6.375 6.375 6.38 6.38 0 0 1-6.375-6.375"/></symbol><use xlink:href="#sprite-search" width="21" height="21" y="69"/><view id="sprite-search-view" viewBox="0 69 21 21"/><symbol fill="none" id="sprite-separ" viewBox="0 0 12 20"><path stroke="#666" stroke-linecap="round" stroke-width="1.5" d="M.75 18.386 10.932.75"/></symbol><use xlink:href="#sprite-separ" width="12" height="20" y="90"/><view id="sprite-separ-view" viewBox="0 90 12 20"/></svg>